<svg width="32" height="32" viewBox="0 0 32 32" fill="none" xmlns="http://www.w3.org/2000/svg">
<path d="M15.9997 9.33339V28.0001M15.9997 9.33339C15.5174 7.34593 14.6869 5.6468 13.6167 4.4576C12.5464 3.2684 11.2859 2.64431 9.99967 2.66672C9.11562 2.66672 8.26777 3.01791 7.64265 3.64303C7.01753 4.26815 6.66634 5.116 6.66634 6.00005C6.66634 6.88411 7.01753 7.73196 7.64265 8.35708C8.26777 8.9822 9.11562 9.33339 9.99967 9.33339M15.9997 9.33339C16.482 7.34593 17.3124 5.6468 18.3827 4.4576C19.453 3.2684 20.7134 2.64431 21.9997 2.66672C22.8837 2.66672 23.7316 3.01791 24.3567 3.64303C24.9818 4.26815 25.333 5.116 25.333 6.00005C25.333 6.88411 24.9818 7.73196 24.3567 8.35708C23.7316 8.9822 22.8837 9.33339 21.9997 9.33339M26.6663 14.6667V25.3334C26.6663 26.0406 26.3854 26.7189 25.8853 27.219C25.3852 27.7191 24.7069 28.0001 23.9997 28.0001H7.99967C7.29243 28.0001 6.61415 27.7191 6.11406 27.219C5.61396 26.7189 5.33301 26.0406 5.33301 25.3334V14.6667" stroke="white" stroke-width="2" stroke-linecap="round" stroke-linejoin="round"/>
<path d="M26.6667 9.33337H5.33333C4.59695 9.33337 4 9.93033 4 10.6667V13.3334C4 14.0698 4.59695 14.6667 5.33333 14.6667H26.6667C27.403 14.6667 28 14.0698 28 13.3334V10.6667C28 9.93033 27.403 9.33337 26.6667 9.33337Z" stroke="white" stroke-width="2" stroke-linecap="round" stroke-linejoin="round"/>
</svg>
