<svg width="29" height="24" viewBox="0 0 29 24" fill="none" xmlns="http://www.w3.org/2000/svg">
<path d="M17 19.6667V3.66667C17 2.95942 16.719 2.28115 16.219 1.78105C15.7189 1.28095 15.0406 1 14.3333 1H3.66667C2.95942 1 2.28115 1.28095 1.78105 1.78105C1.28095 2.28115 1 2.95942 1 3.66667V18.3333C1 18.687 1.14048 19.0261 1.39052 19.2761C1.64057 19.5262 1.97971 19.6667 2.33333 19.6667H5M18.3333 19.6667H10.3333M23.6667 19.6667H26.3333C26.687 19.6667 27.0261 19.5262 27.2761 19.2761C27.5262 19.0261 27.6667 18.687 27.6667 18.3333V13.4667C27.6661 13.1641 27.5627 12.8707 27.3733 12.6347L22.7333 6.83467C22.6086 6.67851 22.4504 6.55237 22.2704 6.4656C22.0904 6.37882 21.8932 6.33362 21.6933 6.33333H17" stroke="white" stroke-width="2" stroke-linecap="round" stroke-linejoin="round"/>
<path d="M20.9997 22.3333C22.4724 22.3333 23.6663 21.1394 23.6663 19.6667C23.6663 18.1939 22.4724 17 20.9997 17C19.5269 17 18.333 18.1939 18.333 19.6667C18.333 21.1394 19.5269 22.3333 20.9997 22.3333Z" stroke="white" stroke-width="2" stroke-linecap="round" stroke-linejoin="round"/>
<path d="M7.66667 22.3333C9.13943 22.3333 10.3333 21.1394 10.3333 19.6667C10.3333 18.1939 9.13943 17 7.66667 17C6.19391 17 5 18.1939 5 19.6667C5 21.1394 6.19391 22.3333 7.66667 22.3333Z" stroke="white" stroke-width="2" stroke-linecap="round" stroke-linejoin="round"/>
</svg>
