<svg width="25" height="29" viewBox="0 0 25 29" fill="none" xmlns="http://www.w3.org/2000/svg">
<path d="M19.6667 13.6667C19.6667 13.1362 19.8774 12.6275 20.2525 12.2525C20.6275 11.8774 21.1362 11.6667 21.6667 11.6667C22.1971 11.6667 22.7058 11.8774 23.0809 12.2525C23.456 12.6275 23.6667 13.1362 23.6667 13.6667V19.6667C23.6667 21.7884 22.8238 23.8232 21.3235 25.3235C19.8232 26.8238 17.7884 27.6667 15.6667 27.6667H13H13.2773C11.9524 27.6669 10.6482 27.3381 9.48184 26.7097C8.31544 26.0814 7.32335 25.1732 6.59467 24.0667L6.33333 23.6667C5.91733 23.0284 4.45689 20.4827 1.952 16.0293C1.6966 15.5754 1.62838 15.0397 1.76184 14.5362C1.89531 14.0327 2.21993 13.6012 2.66667 13.3333C3.14271 13.0485 3.70014 12.9306 4.25075 12.9982C4.80136 13.0658 5.31369 13.3151 5.70667 13.7067L7.66667 15.6667M3.66667 2.33333L2.33333 1M2.33333 7.66667H1M15.6667 2.33333L17 1M17 6.33333H18.3333" stroke="white" stroke-width="2" stroke-linecap="round" stroke-linejoin="round"/>
</svg>
