<svg width="223" height="40" viewBox="0 0 223 40" fill="none" xmlns="http://www.w3.org/2000/svg">
<mask id="mask0_200_1308" style="mask-type:luminance" maskUnits="userSpaceOnUse" x="0" y="0" width="223" height="40">
<path d="M222.857 0H0V40H222.857V0Z" fill="white"/>
</mask>
<g mask="url(#mask0_200_1308)">
<path d="M14.5441 17.0425C13.8664 16.7881 13.1635 16.5584 12.4105 16.3121C8.35242 14.9827 4.1521 13.6041 4.56209 9.1727C4.91352 5.365 8.33569 3.82222 11.1554 3.6663C13.6739 3.51858 15.8494 4.07662 17.8073 5.35679C19.4725 6.44822 20.5936 7.55606 21.4053 9.9687C21.6479 10.6826 21.9575 11.3473 22.6352 11.3473C22.9197 11.3473 23.1373 11.2489 23.3046 11.0683C23.5974 10.7401 23.656 10.1492 23.497 9.13986C23.497 9.13986 22.6937 5.07777 22.5014 4.10124C22.2754 2.95236 21.5642 2.6241 21.0705 2.48461C20.7024 2.36151 20.4179 2.30407 19.9159 2.18918C19.5058 2.0989 18.9453 1.97582 18.0584 1.76246C16.2594 1.32752 14.6111 1.08954 12.9962 1.0403C9.97566 0.941829 5.77534 1.78708 3.056 4.43769C1.2487 6.18562 0.370141 8.43413 0.437078 11.1012C0.604421 17.5677 6.51165 20.005 11.2642 21.9662C11.5654 22.0893 11.8583 22.2124 12.1511 22.3355C19.7486 25.5113 21.2965 27.5465 21.4136 29.992C21.4973 31.904 20.8279 33.5945 19.4725 34.891C17.8325 36.4502 15.2971 37.2627 12.6866 37.0739C7.13082 36.6636 4.13537 34.4562 2.33642 29.4421C2.10215 28.7857 1.77583 27.8912 0.955842 27.8912H0.939107C0.662991 27.8912 0.420343 28.006 0.253 28.2112C0.0856561 28.4082 -0.0816874 28.7692 0.0438202 29.4174C0.0605545 29.4832 1.34073 36.0153 1.94317 36.9836C2.78825 38.3377 8.13488 39.7984 11.2642 39.8066H11.3144C17.9746 39.8066 25.137 36.8032 25.3127 28.3753C25.4131 23.2874 22.2001 19.9065 14.5525 17.0589" fill="#231F20"/>
<path d="M73.1311 3.90437C73.2818 3.86333 73.4239 3.83051 73.5662 3.78948C74.6037 3.50226 75.3568 3.29711 75.34 2.64881C75.34 2.38621 75.2564 2.18106 75.0891 2.02514C74.7962 1.76253 74.3611 1.78716 73.9428 1.81178H73.8842C73.8005 1.81999 73.675 1.82819 73.4909 1.8446C72.4366 1.91845 69.9684 2.09899 67.1318 2.12361C64.3623 2.09899 62.1199 1.92666 61.1576 1.85281C60.9568 1.8364 60.8063 1.82819 60.7142 1.81999H60.664C60.2456 1.78716 59.8106 1.76253 59.5178 2.03335C59.3504 2.18106 59.2667 2.39442 59.2667 2.65703C59.2583 3.30531 60.0114 3.51047 61.049 3.79769C61.1911 3.83872 61.3334 3.87154 61.484 3.91258C62.781 4.24904 64.128 4.59369 64.5213 6.1857C64.6803 6.80938 64.8811 7.97467 64.8727 10.97V29.8279C64.8894 32.815 64.6803 33.9803 64.5213 34.6039C64.1197 36.1877 62.781 36.5406 61.484 36.8771C61.3334 36.9181 61.1911 36.9509 61.049 36.9919C60.0114 37.2791 59.2583 37.4843 59.2667 38.1326C59.2667 38.3952 59.3588 38.6004 59.5178 38.7563C59.8106 39.0189 60.2456 38.9943 60.664 38.9696H60.7142C60.7979 38.9614 60.9318 38.9532 61.1075 38.9368C62.1618 38.863 64.6301 38.6824 67.4666 38.6579C70.236 38.6824 72.4784 38.8548 73.4407 38.9286C73.6415 38.9451 73.7922 38.9532 73.8842 38.9614H73.9428C74.0683 38.9696 74.1938 38.9779 74.3192 38.9779C74.6122 38.9779 74.8798 38.9368 75.0891 38.748C75.2564 38.6004 75.34 38.387 75.34 38.1244C75.3484 37.4762 74.5954 37.271 73.5662 36.9837C73.4239 36.9427 73.1311 36.9099 73.1311 36.8688C71.8342 36.5324 70.4955 36.1877 70.0939 34.5957C69.9349 33.972 69.7341 32.7986 69.7424 29.8197V10.9535C69.7256 7.96647 69.9349 6.80117 70.0939 6.17749C70.4955 4.59369 71.8342 4.24082 73.1311 3.90437Z" fill="#231F20"/>
<path d="M116.13 1.86914C115.762 1.86914 115.385 1.90196 114.917 1.9512C114.239 2.02506 113.318 2.11532 111.854 2.13174C110.716 2.13994 108.934 2.09891 106.842 1.84452C106.073 1.75425 105.637 1.80348 105.361 2.01686C105.244 2.10712 105.102 2.27124 105.077 2.55026C105.043 2.87031 105.194 3.45295 106.549 3.75658C108.457 4.1833 109.277 4.8316 109.495 5.02034C110.072 5.52913 110.223 6.0215 110.407 7.93355C110.976 14.039 110.7 30.3202 110.7 30.4679V30.4844C110.616 30.4104 110.499 30.2873 110.34 30.1069L86.8029 3.09187L86.7611 3.04264C86.3177 2.54206 85.7235 1.86094 84.4016 1.86094H84.3681C82.109 1.98402 80.9208 1.89376 80.2765 1.84452C80.1594 1.83632 80.0589 1.82811 79.9837 1.81991H79.9335C79.5152 1.79528 79.0801 1.76246 78.7872 2.03327C78.6199 2.18098 78.5362 2.39434 78.5362 2.65694C78.5279 3.30523 79.3144 3.5268 80.3184 3.79761C82.0672 4.27357 82.8871 5.32397 83.5146 6.37437C84.3429 7.76943 84.8032 10.2641 84.8032 13.4071V31.2804C84.8032 33.094 84.5522 34.4151 84.0668 35.1948C83.5983 35.9497 83.0377 36.4913 81.5568 37.0247C80.4773 37.4104 80.3519 37.9274 80.3685 38.2146C80.4439 38.9286 81.2053 38.9367 81.54 38.9367H81.5483C81.9165 38.9367 82.293 38.9039 82.7616 38.8546C83.4393 38.7808 84.3597 38.6905 85.8156 38.6742C86.9452 38.666 88.7357 38.707 90.8275 38.9614C91.6057 39.0599 92.0324 39.0024 92.3085 38.789C92.4257 38.6988 92.568 38.5346 92.593 38.2557C92.6265 37.9356 92.4759 37.3529 91.1204 37.0493C89.4721 36.68 89.0955 36.4256 88.7106 36.0728C88.3508 35.7445 87.9911 35.2604 87.9827 34.0869L87.9325 13.284C87.9325 12.6358 88.058 12.488 88.058 12.4798L88.1417 12.5127L88.4011 12.7999L110.875 38.1489C110.967 38.2639 111.687 39.1911 112.515 39.1911C112.616 39.1911 112.716 39.1748 112.817 39.1501C113.821 38.8465 113.795 37.673 113.762 35.7281C113.762 35.367 113.745 34.9814 113.745 34.5629L113.636 8.1305C113.662 6.20203 114.097 5.40603 114.549 4.75774C114.883 4.3064 115.377 3.99456 116.096 3.7812C117.033 3.50218 117.335 2.98519 117.31 2.58308C117.226 1.86094 116.465 1.86094 116.13 1.86094" fill="#231F20"/>
<path d="M53.8787 4.33927C51.6196 2.64057 48.2476 1.74609 44.1226 1.74609H44.1059C42.8675 1.74609 41.4786 1.80355 40.0059 1.86919C36.793 2.0087 33.1532 2.15641 29.1955 1.81996C28.7772 1.78712 28.3087 1.74609 27.9991 2.01691C27.8317 2.16462 27.7396 2.37798 27.7396 2.64878C27.7313 3.29708 28.4843 3.50223 29.5219 3.78945C30.7853 4.13412 31.3794 4.57725 31.8898 5.51276C32.3082 6.42366 32.5005 8.49983 32.5005 12.0449V29.8032C32.509 32.7903 32.2997 33.9557 32.1491 34.5793C31.7475 36.1631 30.4088 36.516 29.1119 36.8525C28.9612 36.8935 28.8191 36.9263 28.6768 36.9673C27.6393 37.2545 26.8863 37.4597 26.8946 38.108C26.8946 38.3705 26.9866 38.5758 27.1456 38.7317C27.4385 38.9943 27.8736 38.9696 28.2919 38.945H28.3421C28.4258 38.9368 28.5513 38.9286 28.7354 38.9122C29.7896 38.8383 32.2579 38.6578 35.0944 38.6331C37.864 38.6578 40.1064 38.8301 41.0685 38.904C41.2693 38.9203 41.42 38.9286 41.5121 38.9368H41.5706C41.6961 38.945 41.8216 38.9533 41.9472 38.9533C42.24 38.9533 42.5161 38.9122 42.7169 38.7234C42.8843 38.5758 42.968 38.3624 42.968 38.0998C42.9763 37.4514 42.2233 37.2463 41.1941 36.9591C41.0519 36.9181 40.9096 36.8853 40.7589 36.8442C39.462 36.5078 38.1233 36.1631 37.7217 34.5711C37.5627 33.9474 37.3619 32.7739 37.3786 29.7951L37.4205 5.87384C37.4205 5.04501 37.5962 4.74958 37.705 4.64291C37.8723 4.47878 38.2739 4.3803 38.9183 4.36389C45.52 4.13412 47.8209 4.83985 49.7705 6.23492C52.2722 8.02388 52.8077 11.1915 52.8161 13.5303C52.8329 18.7085 49.2349 22.4997 44.2732 22.5571C43.0767 22.5736 42.2148 22.4586 41.2108 22.1714H41.1773C40.8427 22.0483 40.3407 21.876 39.9724 22.0976C39.8051 22.1961 39.6963 22.3683 39.6629 22.5736C39.5625 23.2711 40.4996 23.6568 41.2108 23.8947C42.3236 24.2558 43.2608 24.3215 44.474 24.3707C47.1097 24.4856 49.7119 23.8865 51.9877 22.631C54.1883 21.4165 57.8866 18.5197 57.8866 12.7835C57.8866 8.96759 56.6985 6.44007 53.9039 4.33927" fill="#231F20"/>
<path d="M192.916 31.174C192.456 31.174 192.155 31.5843 191.611 32.3393C190.649 33.6606 189.109 34.6042 186.908 35.2115C184.373 35.9172 182.373 36.1716 178.667 36.2702C176.725 36.3194 175.513 36.3112 174.961 35.6793C174.442 35.0884 174.442 34.2678 174.442 32.2819L174.417 9.0254V8.87769C174.475 7.0477 174.492 6.35838 174.994 5.35721C175.496 4.62686 176.173 4.38887 177.295 4.00318C177.513 3.92932 177.738 3.85546 177.981 3.7652C179.06 3.37951 179.186 2.86251 179.169 2.57529C179.093 1.85314 178.324 1.86135 177.989 1.85314C177.613 1.85314 176.952 1.88596 176.123 1.94342C174.986 2.01727 173.563 2.10754 172.149 2.11575C169.305 2.09112 166.836 1.91058 165.781 1.83673C165.607 1.82032 165.472 1.81211 165.388 1.81211H165.338C164.92 1.7875 164.484 1.75467 164.192 2.02547C164.025 2.17319 163.941 2.38655 163.941 2.64915C163.932 3.29744 164.677 3.50259 165.723 3.78982C165.865 3.83084 166.008 3.86367 166.159 3.90471C167.456 4.24116 168.802 4.58583 169.195 6.17784C169.354 6.80151 169.555 7.975 169.547 10.9539V32.4378C169.547 34.0463 169.354 35.187 168.961 35.8352C168.593 36.4588 167.824 36.9431 166.693 37.2795C165.857 37.5175 165.681 37.9442 165.681 38.2642C165.681 38.5843 165.816 38.7567 165.924 38.8633C166.099 39.0274 166.351 39.1095 166.685 39.1095H166.761C167.146 39.0849 167.665 39.0356 168.3 38.9454C169.756 38.7402 171.597 38.6336 173.772 38.6336C175.647 38.6336 177.445 38.691 179.136 38.814L182.031 39.0274C182.784 39.0849 183.461 39.1095 184.039 39.1095C187.595 39.1095 190.213 38.1001 191.828 36.106C192.941 34.6945 193.503 33.4718 193.652 32.1178C193.67 32.0028 193.703 31.6418 193.478 31.3956C193.385 31.2971 193.218 31.174 192.924 31.174" fill="#231F20"/>
<path d="M222.671 31.3953C222.578 31.2969 222.411 31.1738 222.117 31.1738C221.658 31.1738 221.356 31.5841 220.812 32.3391C219.85 33.6602 218.311 34.604 216.111 35.2112C213.575 35.917 211.576 36.1714 207.868 36.2698C205.928 36.3273 204.714 36.3108 204.162 35.679C203.643 35.0881 203.643 34.2675 203.643 32.2816L203.66 22.6393C203.66 22.467 203.727 21.9746 204.019 21.7366C204.245 21.5561 204.522 21.5479 205.283 21.5479H211.349C212.529 21.5479 213.793 21.6135 214.261 22.1058C214.713 22.5818 214.788 23.263 214.864 23.8702C214.939 24.5513 215.023 25.257 215.708 25.4376C215.993 25.5114 216.269 25.4704 216.487 25.3227C216.771 25.1339 216.93 24.7894 216.972 24.3134C216.988 24.1 216.98 23.8456 216.972 23.5256C216.947 22.8937 216.922 22.0156 217.064 20.6698C217.181 19.5619 217.365 18.7824 217.507 18.1586C217.608 17.7238 217.691 17.3873 217.716 17.0508V16.9688C217.759 16.6569 217.817 16.0743 217.491 15.705C217.34 15.5244 217.123 15.426 216.864 15.4096C216.161 15.3603 215.867 16.0497 215.743 16.3369C215.307 17.338 214.796 18.2489 213.307 18.3392C209.868 18.5361 205.091 18.528 205.041 18.5361C204.271 18.5361 204.044 18.528 203.835 18.2899C203.735 18.1751 203.66 18.0192 203.66 17.2067V6.60428C203.66 5.72621 203.819 5.40616 204.069 5.16819C204.379 4.88917 204.94 4.76608 205.885 4.76608H210.085C212.796 4.76608 214.688 4.89737 215.683 5.15177C216.579 5.38155 217.089 5.79185 217.357 6.50581C217.625 7.21155 217.575 8.3358 217.575 8.344C217.507 9.45184 218.018 9.76368 218.453 9.83753C218.721 9.87857 218.963 9.82933 219.164 9.68161C219.416 9.50108 219.565 9.18104 219.616 8.74611C219.925 6.17756 220.185 4.84814 220.336 4.05214C220.402 3.69927 220.452 3.44487 220.487 3.2151C220.553 2.72272 220.461 2.32883 220.21 2.05801C219.968 1.78721 219.608 1.64771 219.131 1.64771C218.855 1.64771 218.369 1.68873 217.7 1.74619C216.378 1.86107 214.37 2.02519 212.161 2.02519C211.843 2.02519 211.274 2.02519 210.513 2.0334C206.747 2.06622 197.92 2.13188 194.64 1.83645C194.188 1.81183 193.753 1.80363 193.452 2.07443C193.276 2.23035 193.193 2.45192 193.184 2.72272C193.176 3.37923 193.962 3.65003 194.908 3.91263C195.092 3.96187 195.292 4.0111 195.501 4.06035C196.757 4.36397 198.053 4.67581 198.439 6.18576C198.597 6.80943 198.799 7.97472 198.781 10.9618L198.74 32.4457C198.74 34.0542 198.547 35.1949 198.162 35.8431C197.794 36.4669 197.033 36.951 195.895 37.2874C195.058 37.5254 194.883 37.9521 194.883 38.2722C194.883 38.5922 195.017 38.7646 195.125 38.8712C195.301 39.0353 195.552 39.1174 195.887 39.1174H195.962C196.347 39.101 196.866 39.0435 197.501 38.9532C198.957 38.7481 200.799 38.6415 202.965 38.6415C204.84 38.6415 206.647 38.699 208.329 38.822L211.224 39.0353C211.977 39.0928 212.655 39.1174 213.232 39.1174C216.788 39.1174 219.407 38.1081 221.021 36.1139C222.135 34.7025 222.695 33.4798 222.845 32.1257C222.863 32.0108 222.896 31.6497 222.671 31.4035" fill="#231F20"/>
<path d="M159.346 0.252618C159.145 0.277238 155.907 0.712168 152.962 1.09786C151.347 1.31122 150.025 1.4015 148.962 1.46714C146.938 1.59845 145.817 1.6723 145.348 2.4601C144.888 3.08377 145.139 3.92081 145.548 5.28305C145.875 6.36627 146.326 7.8516 146.644 9.91958C147.188 13.4237 147.941 16.9606 147.95 16.9851C148.042 17.4775 148.226 17.8304 148.51 18.0191C148.72 18.1586 148.971 18.2161 149.246 18.1669C150.158 18.0027 150.083 16.8866 150.05 16.4107C150.009 15.7706 149.916 15.1059 149.8 14.1786C149.699 13.4319 149.581 12.4963 149.44 11.2736C149.314 10.1493 149.389 9.39438 150.168 9.12357C150.937 8.94303 151.481 9.23846 151.949 9.58312C154.644 11.569 155.874 14.4576 155.832 18.6839C155.79 22.8936 154.066 26.6029 150.97 29.1469C147.556 31.9534 143.248 33.3813 138.152 33.3813C134.403 33.3813 123.542 30.9603 122.89 20.1938C122.346 11.3146 128.044 7.56439 131.098 5.55385L131.508 5.28305C131.801 5.09431 132.337 4.73323 132.253 4.20803C132.22 4.01928 132.12 3.85517 131.961 3.74848C131.684 3.55974 131.258 3.52691 130.546 3.66641C128.069 4.12597 126.354 4.26547 124.539 4.41319L124.053 4.45422C123.358 4.51166 122.932 4.88094 122.773 5.55385C122.715 5.79183 122.673 5.97238 122.605 6.20215C122.539 6.45654 122.464 6.76838 122.33 7.28537C122.146 8.03214 121.902 8.72967 121.618 9.5503C121.317 10.4366 120.965 11.4377 120.648 12.6687C120.037 15.0074 119.728 17.256 119.728 19.3403C119.728 24.781 121.66 29.3766 125.467 32.9955C129.274 36.6145 134.093 38.4445 139.801 38.4445C145.507 38.4445 149.765 36.7129 153.264 33.291C156.668 29.9592 158.384 25.651 158.534 20.1035C158.651 15.6311 157.756 12.3815 155.446 8.87738C155.171 8.45887 154.861 8.05675 154.569 7.66286C153.806 6.66169 153.088 5.71798 153.229 4.89735C153.372 4.15058 153.715 3.83874 154.778 3.5105C155.832 3.18225 157.036 2.94426 158.108 2.73911C158.71 2.62423 159.22 2.52575 159.63 2.41906C160.208 2.27136 161.421 1.97593 161.178 0.95015C161.061 0.449569 160.45 0.0474627 159.346 0.244413" fill="#231F20"/>
</g>
</svg>
